<svg version="1" xmlns="http://www.w3.org/2000/svg" width="416" height="416" viewBox="0 0 312.000000 312.000000"><path d="M140 6.1c-53.1 5-88.3 32.8-95 74.9-.6 3.8-.7 12.5-.4 21 .4 8 .4 19.7 0 26-.8 11.6-.8 11.6-3.7 12.9-5.3 2.3-5.9 4.9-5.9 27v19.9l2.6 3.1c1.4 1.7 3.4 3.1 4.5 3.1 1.6 0 1.9.7 1.9 4.6 0 7.9 3.6 13.1 10.3 14.8l2.7.6v13.8c0 25.1 3 40.1 10.7 53.1 5.4 9.1 14.8 18.2 23 22.3 6.7 3.3 6.8 3.3 23.6 3.6 16.2.4 16.9.5 19.2 2.8 2.4 2.4 2.6 2.4 22.9 2.4h20.5l1.9-2.4c1.8-2.4 2.2-2.5 18.8-2.8 16.7-.3 17-.3 23.8-3.6 13.5-6.3 25.3-21.9 30.7-40.2 1.8-6.3 2.2-10.8 2.6-28.1l.5-20.5 4.1-1.5c5.7-2 8.7-6.6 8.7-13.5 0-4.8.2-5.4 2-5.4 1.2 0 3.2-1.2 4.5-2.6 2.5-2.7 2.5-2.8 2.5-24.1v-21.5l-2.9-2.9c-1.6-1.6-3.6-2.9-4.4-2.9-2 0-3.2-20.2-2.3-39.8.8-16-.3-24.5-4.4-35.7-7.8-20.8-25.6-38.5-48.9-48.4C194.3 7.7 165 3.7 140 6.1z"/></svg>